<?xml version="1.0" encoding="UTF-8"?>
<svg id="Calque_2" data-name="Calque 2" xmlns="http://www.w3.org/2000/svg" xmlns:xlink="http://www.w3.org/1999/xlink" viewBox="0 0 550.42 664.42">
  <defs>
    <style>
      .cls-1, .cls-2, .cls-3 {
        fill: #fff;
      }

      .cls-2 {
        fill-rule: evenodd;
      }

      .cls-4 {
        clip-path: url(#clippath-1);
      }

      .cls-3 {
        clip-rule: evenodd;
      }

      .cls-5 {
        clip-path: url(#clippath-2);
      }

      .cls-6 {
        clip-path: url(#clippath);
      }
    </style>
    <clipPath id="clippath">
      <polygon class="cls-3" points="341.76 0 550.42 0 550.42 208.66 447.69 208.66 447.69 102.74 341.76 102.74 341.76 0"/>
    </clipPath>
    <clipPath id="clippath-1">
      <path class="cls-3" d="M348.96,348.96c-40.73,40.73-106.76,40.73-147.49,0-40.73-40.73-40.73-106.76,0-147.49,40.73-40.73,106.76-40.73,147.49,0,40.73,40.73,40.73,106.76,0,147.49"/>
    </clipPath>
    <clipPath id="clippath-2">
      <path class="cls-3" d="M397.17,397.17c-67.38,67.38-176.54,67.38-243.92,0-67.38-67.38-67.38-176.54,0-243.92,32.52-32.52,75.97-50.52,121.96-50.52V0c-70.43,0-140.87,26.87-194.6,80.61-107.48,107.48-107.48,281.73,0,389.21l194.6,194.6,194.6-194.6c53.74-53.74,80.61-124.17,80.61-194.6h-102.74c0,45.99-18,89.44-50.52,121.96"/>
    </clipPath>
  </defs>
  <g id="N_B" data-name="N/B">
    <g id="Calque_4" data-name="Calque 4">
      <g>
        <polygon class="cls-2" points="341.76 0 550.42 0 550.42 208.66 447.69 208.66 447.69 102.74 341.76 102.74 341.76 0"/>
        <g class="cls-6">
          <rect class="cls-1" x="341.76" width="208.66" height="208.66"/>
        </g>
      </g>
      <g>
        <path class="cls-2" d="M348.96,348.96c-40.73,40.73-106.76,40.73-147.49,0-40.73-40.73-40.73-106.76,0-147.49,40.73-40.73,106.76-40.73,147.49,0,40.73,40.73,40.73,106.76,0,147.49"/>
        <g class="cls-4">
          <rect class="cls-1" x="160.74" y="160.74" width="228.95" height="228.95"/>
        </g>
      </g>
      <g>
        <path class="cls-2" d="M397.17,397.17c-67.38,67.38-176.54,67.38-243.92,0-67.38-67.38-67.38-176.54,0-243.92,32.52-32.52,75.97-50.52,121.96-50.52V0c-70.43,0-140.87,26.87-194.6,80.61-107.48,107.48-107.48,281.73,0,389.21l194.6,194.6,194.6-194.6c53.74-53.74,80.61-124.17,80.61-194.6h-102.74c0,45.99-18,89.44-50.52,121.96"/>
        <g class="cls-5">
          <rect class="cls-1" x="-26.87" width="577.29" height="664.42"/>
        </g>
      </g>
    </g>
  </g>
</svg>